# xmcd
#
# Track frame offsets:
#	150
#	15720
#	44971
#	62700
#	82576
#	103577
#	126455
#	155475
#	195270
#	219837
#
# Disc length: 3323 seconds
#
# Revision: 0
# Processed by: cddbd v1.5PL3 Copyright (c) Steve Scherf et al.
# Submitted via: audiograbber 1.82.01
#
DISCID=800cf90a
DTITLE=Eric Clapton - 2001-12-04 - Budokan, Japan - Disc 1
DYEAR=1900
DGENRE=
TTITLE0=Eric Clapton - Key to the Highway
TTITLE1=Eric Clapton - Reptile
TTITLE2=Eric Clapton - Got You On My Mind
TTITLE3=Eric Clapton - Tears in Heaven
TTITLE4=Eric Clapton - Layla (Acoustic)
TTITLE5=Eric Clapton - Bell Bottom Blues
TTITLE6=Eric Clapton - Change the World
TTITLE7=Eric Clapton - River of Tears
TTITLE8=Eric Clapton - Goin' Down Slow
TTITLE9=Eric Clapton - She's Gone
EXTD=
EXTT0=
EXTT1=
EXTT2=
EXTT3=
EXTT4=
EXTT5=
EXTT6=
EXTT7=
EXTT8=
EXTT9=
PLAYORDER=
